<svg xmlns="http://www.w3.org/2000/svg" viewBox="0 0 64 64" width="128" height="128"><path d="M27 7C26.5 7 26 7.5 26 8L26 15 11 15C10.5 15 10 15.5 10 16L10 23 3 23C2.5 23 2 23.5 2 24L2 31 1.3 31C0.9 31 0.4 31.3 0.3 31.8 0.3 32.1-1.4 40 3.4 46.6 6.9 51.4 12.8 54.2 21.1 54.9 22.2 55 23.2 55 24.2 55 44.2 55 52.2 37.9 53.7 34.1 61.6 34.7 63.9 28.4 63.9 28.3 64.1 27.9 64 27.5 63.7 27.2 60.6 24.6 57.5 24.5 55.5 25.2 55.7 20.6 50.9 17.3 50.6 17.2 50.4 17 50.1 17 49.9 17 49.6 17.1 49.4 17.2 49.2 17.4 45.1 23.6 46.8 28.1 47.8 29.8 46.2 31 44.1 31 44.1 31L44 31 44 24C44 23.5 43.6 23 43 23L36 23 36 8C36 7.5 35.6 7 35 7L27 7zM28 9L34 9 34 15 28 15 28 9zM12 17L26 17 26 23 20 23 20 20C20 19.4 19.6 19 19 19 18.4 19 18 19.4 18 20L18 23 12 23 12 17zM28 17L34 17 34 31 28 31 28 25 31 25C31.6 25 32 24.6 32 24 32 23.5 31.6 23 31 23L28 23 28 17zM50.3 19.5C51.7 20.7 54.4 23.5 53.1 26.6 53 27 53.1 27.5 53.4 27.8 53.8 28.1 54.3 28.1 54.7 27.8 54.8 27.7 57.9 25.4 61.8 28.3 61 29.7 58.6 32.7 53.2 32 52.7 31.9 52.3 32.2 52.1 32.7 52 32.9 45.2 53 24.2 53 23.3 53 22.3 53 21.3 52.9 13.6 52.2 8.1 49.7 5 45.4 1.5 40.7 1.9 35 2.2 33L3 33 43 33C43 33 43 33 43 33L44.1 33C44.2 33 47.6 33.1 49.8 30.7 50.1 30.3 50.2 29.7 49.8 29.4 49.8 29.3 46.8 25.6 50.3 19.5zM4 25L10 25 10 31 4 31 4 25zM12 25L18 25 18 31 12 31 12 25zM20 25L26 25 26 31 20 31 20 25zM36 25L42 25 42 31 36 31 36 25zM12.5 38A2.5 2.5 0 0 0 12.5 43 2.5 2.5 0 0 0 12.5 38zM42.3 38.5C42 38.5 41.8 38.6 41.6 38.9 41.2 39.3 41.3 39.9 41.7 40.3L43.2 41.6C43.4 41.7 43.7 41.8 43.9 41.8 44.2 41.8 44.5 41.7 44.7 41.4 45 41 45 40.4 44.5 40L43 38.7C42.8 38.6 42.5 38.5 42.3 38.5zM39 41.9C38.8 41.9 38.5 42 38.3 42.1 37.8 42.5 37.8 43.1 38.1 43.5L39.4 45.1C39.6 45.3 39.9 45.5 40.2 45.5 40.4 45.5 40.6 45.4 40.8 45.2 41.2 44.9 41.3 44.3 40.9 43.8L39.7 42.3C39.5 42.1 39.3 41.9 39 41.9zM34.8 44.5C34.7 44.5 34.5 44.6 34.4 44.6 33.9 44.9 33.7 45.5 34 46L34.9 47.8C35.1 48.1 35.4 48.3 35.8 48.3 35.9 48.3 36.1 48.3 36.2 48.2 36.7 48 36.9 47.4 36.7 46.9L35.8 45.1C35.6 44.7 35.2 44.5 34.8 44.5zM30.5 46.2C30.4 46.2 30.2 46.2 30.1 46.3 29.6 46.4 29.3 46.9 29.4 47.5L29.9 49.4C30 49.9 30.4 50.2 30.9 50.2 30.9 50.2 31 50.2 31.1 50.1 31.6 50 32 49.5 31.8 48.9L31.3 47C31.2 46.6 30.9 46.3 30.5 46.2zM25.5 47C25 47 24.6 47.4 24.6 48L24.7 50C24.7 50.5 25.2 50.9 25.7 50.9 25.7 50.9 25.7 50.9 25.7 50.9 26.3 50.9 26.7 50.4 26.7 49.9L26.6 47.9C26.6 47.3 26.1 46.9 25.5 47z"/></svg>