<svg xmlns="http://www.w3.org/2000/svg" viewBox="0 0 50 50" width="150" height="150"><path d="M40.4 3C40.4 3 40.3 3 40.2 3L23.8 7C23.4 7.1 23.2 7.3 23.1 7.6L21.3 12 16 12C15.7 12 15.5 12.1 15.3 12.3L3.3 25.3C2.9 25.7 2.9 26.3 3.3 26.7L15.9 38.7C16.1 38.9 16.3 39 16.6 39L22.3 39 24.1 43.4C24.2 43.7 24.5 43.9 24.8 44L42.3 47C42.8 47.1 43.3 46.7 43.4 46.2L47 30C47 29.7 47 29.5 46.9 29.3L44.5 25.4 46.9 20.4C47 20.2 47 19.9 46.9 19.7L41.4 3.7C41.2 3.3 40.9 3 40.4 3ZM39.8 5.2L44.9 19.9 43.4 23 40 11.7C39.8 11.3 39.4 11 39 11 38.6 11 38.3 11.2 38.1 11.6L31.1 25.6C30.9 25.9 31 26.3 31.2 26.5L39.2 38.8C39.4 39.1 39.8 39.3 40.2 39.2 40.6 39.1 40.9 38.8 41 38.4L43.5 27.5 44.9 29.9 41.7 44.9 25.7 42.1 24.6 39.3 36.2 41.5C36.6 41.5 37 41.4 37.2 41 37.4 40.7 37.4 40.3 37.2 39.9L28.8 27.4C28.6 27.2 28.3 27 28 27L12 27C11.6 27 11.2 27.3 11.1 27.6 10.9 28 11 28.5 11.3 28.7L20.4 37 17 37 5.4 26 16.4 14 19.7 14 11.3 23.3C11 23.6 10.9 24 11.1 24.4 11.2 24.8 11.6 25 12 25L28 25C28.4 25 28.7 24.8 28.9 24.4L35.9 10.4C36 10.1 36 9.8 35.9 9.5 35.7 9.2 35.4 9 35 9 34.9 9 34.9 9 34.8 9L23.6 11.6 24.7 8.9ZM33.2 11.5L27.4 23 14.3 23 22.5 13.9ZM38.8 14.7L42 25 39.5 35.7 33.2 25.9ZM14.6 29L27.5 29 34.2 39.1 23.5 37.1Z"/></svg>